<?xml version="1.0" encoding="UTF-8"?>
<svg width="1200" height="800" viewBox="0 0 1200 800" xmlns="http://www.w3.org/2000/svg">
<rect width="1200" height="800" fill="#1a1a2e"/>

<text x="600" y="50" text-anchor="middle" fill="#ffffff" font-family="Consolas, monospace" font-size="28" font-weight="bold">
    PEŁNY CYKL LICZNIKA 0-9 (10 sekund)
</text>

<!-- Oś czasu -->
<line x1="100" y1="150" x2="1100" y2="150" stroke="#ffffff" stroke-width="3"/>
<text x="100" y="130" fill="#ffffff" font-family="Consolas, monospace" font-size="14">t=0s</text>
<text x="1100" y="130" fill="#ffffff" font-family="Consolas, monospace" font-size="14">t=10s</text>

<!-- Cyfry na osi czasu -->

<line x1="150" y1="140" x2="150" y2="160" stroke="#ff3333" stroke-width="2"/>
<circle cx="150" cy="200" r="30" fill="#4a4a6a" stroke="#ff3333" stroke-width="2"/>
<text x="150" y="208" text-anchor="middle" fill="#ffffff" font-family="Consolas, monospace" font-size="28" font-weight="bold">0</text>
<text x="150" y="250" text-anchor="middle" fill="#aaa" font-family="Consolas, monospace" font-size="11">0000</text>
<text x="150" y="270" text-anchor="middle" fill="#ff3333" font-family="Consolas, monospace" font-size="10">/say 0</text>

<line x1="250" y1="140" x2="250" y2="160" stroke="#ff3333" stroke-width="2"/>
<circle cx="250" cy="200" r="30" fill="#4a4a6a" stroke="#ff3333" stroke-width="2"/>
<text x="250" y="208" text-anchor="middle" fill="#ffffff" font-family="Consolas, monospace" font-size="28" font-weight="bold">1</text>
<text x="250" y="250" text-anchor="middle" fill="#aaa" font-family="Consolas, monospace" font-size="11">0001</text>
<text x="250" y="270" text-anchor="middle" fill="#ff3333" font-family="Consolas, monospace" font-size="10">/say 1</text>

<line x1="350" y1="140" x2="350" y2="160" stroke="#ff3333" stroke-width="2"/>
<circle cx="350" cy="200" r="30" fill="#4a4a6a" stroke="#ff3333" stroke-width="2"/>
<text x="350" y="208" text-anchor="middle" fill="#ffffff" font-family="Consolas, monospace" font-size="28" font-weight="bold">2</text>
<text x="350" y="250" text-anchor="middle" fill="#aaa" font-family="Consolas, monospace" font-size="11">0010</text>
<text x="350" y="270" text-anchor="middle" fill="#ff3333" font-family="Consolas, monospace" font-size="10">/say 2</text>

<line x1="450" y1="140" x2="450" y2="160" stroke="#ff3333" stroke-width="2"/>
<circle cx="450" cy="200" r="30" fill="#4a4a6a" stroke="#ff3333" stroke-width="2"/>
<text x="450" y="208" text-anchor="middle" fill="#ffffff" font-family="Consolas, monospace" font-size="28" font-weight="bold">3</text>
<text x="450" y="250" text-anchor="middle" fill="#aaa" font-family="Consolas, monospace" font-size="11">0011</text>
<text x="450" y="270" text-anchor="middle" fill="#ff3333" font-family="Consolas, monospace" font-size="10">/say 3</text>

<line x1="550" y1="140" x2="550" y2="160" stroke="#ff3333" stroke-width="2"/>
<circle cx="550" cy="200" r="30" fill="#4a4a6a" stroke="#ff3333" stroke-width="2"/>
<text x="550" y="208" text-anchor="middle" fill="#ffffff" font-family="Consolas, monospace" font-size="28" font-weight="bold">4</text>
<text x="550" y="250" text-anchor="middle" fill="#aaa" font-family="Consolas, monospace" font-size="11">0100</text>
<text x="550" y="270" text-anchor="middle" fill="#ff3333" font-family="Consolas, monospace" font-size="10">/say 4</text>

<line x1="650" y1="140" x2="650" y2="160" stroke="#ff3333" stroke-width="2"/>
<circle cx="650" cy="200" r="30" fill="#4a4a6a" stroke="#ff3333" stroke-width="2"/>
<text x="650" y="208" text-anchor="middle" fill="#ffffff" font-family="Consolas, monospace" font-size="28" font-weight="bold">5</text>
<text x="650" y="250" text-anchor="middle" fill="#aaa" font-family="Consolas, monospace" font-size="11">0101</text>
<text x="650" y="270" text-anchor="middle" fill="#ff3333" font-family="Consolas, monospace" font-size="10">/say 5</text>

<line x1="750" y1="140" x2="750" y2="160" stroke="#ff3333" stroke-width="2"/>
<circle cx="750" cy="200" r="30" fill="#4a4a6a" stroke="#ff3333" stroke-width="2"/>
<text x="750" y="208" text-anchor="middle" fill="#ffffff" font-family="Consolas, monospace" font-size="28" font-weight="bold">6</text>
<text x="750" y="250" text-anchor="middle" fill="#aaa" font-family="Consolas, monospace" font-size="11">0110</text>
<text x="750" y="270" text-anchor="middle" fill="#ff3333" font-family="Consolas, monospace" font-size="10">/say 6</text>

<line x1="850" y1="140" x2="850" y2="160" stroke="#ff3333" stroke-width="2"/>
<circle cx="850" cy="200" r="30" fill="#4a4a6a" stroke="#ff3333" stroke-width="2"/>
<text x="850" y="208" text-anchor="middle" fill="#ffffff" font-family="Consolas, monospace" font-size="28" font-weight="bold">7</text>
<text x="850" y="250" text-anchor="middle" fill="#aaa" font-family="Consolas, monospace" font-size="11">0111</text>
<text x="850" y="270" text-anchor="middle" fill="#ff3333" font-family="Consolas, monospace" font-size="10">/say 7</text>

<line x1="950" y1="140" x2="950" y2="160" stroke="#ff3333" stroke-width="2"/>
<circle cx="950" cy="200" r="30" fill="#4a4a6a" stroke="#ff3333" stroke-width="2"/>
<text x="950" y="208" text-anchor="middle" fill="#ffffff" font-family="Consolas, monospace" font-size="28" font-weight="bold">8</text>
<text x="950" y="250" text-anchor="middle" fill="#aaa" font-family="Consolas, monospace" font-size="11">1000</text>
<text x="950" y="270" text-anchor="middle" fill="#ff3333" font-family="Consolas, monospace" font-size="10">/say 8</text>

<line x1="1050" y1="140" x2="1050" y2="160" stroke="#ff3333" stroke-width="2"/>
<circle cx="1050" cy="200" r="30" fill="#4a4a6a" stroke="#ff3333" stroke-width="2"/>
<text x="1050" y="208" text-anchor="middle" fill="#ffffff" font-family="Consolas, monospace" font-size="28" font-weight="bold">9</text>
<text x="1050" y="250" text-anchor="middle" fill="#aaa" font-family="Consolas, monospace" font-size="11">1001</text>
<text x="1050" y="270" text-anchor="middle" fill="#ff3333" font-family="Consolas, monospace" font-size="10">/say 9</text>

<rect x="100" y="320" width="1000" height="400" fill="#2d2d44" rx="10"/>
<text x="600" y="350" text-anchor="middle" fill="#ffffff" font-family="Consolas, monospace" font-size="16" font-weight="bold">SCHEMAT BLOKOWY UKŁADU</text>

<!-- Bloki -->
<rect x="150" y="400" width="120" height="80" fill="#4a4a6a" rx="10"/>
<text x="210" y="445" text-anchor="middle" fill="#ffffff" font-family="Consolas, monospace" font-size="14" font-weight="bold">ZEGAR</text>
<text x="210" y="465" text-anchor="middle" fill="#aaa" font-family="Consolas, monospace" font-size="10">1Hz (20 ticków)</text>

<rect x="350" y="400" width="140" height="80" fill="#4a4a6a" rx="10"/>
<text x="420" y="445" text-anchor="middle" fill="#ffffff" font-family="Consolas, monospace" font-size="14" font-weight="bold">LICZNIK</text>
<text x="420" y="465" text-anchor="middle" fill="#aaa" font-family="Consolas, monospace" font-size="10">4-bit (0-15)</text>

<rect x="570" y="400" width="140" height="80" fill="#4a4a6a" rx="10"/>
<text x="640" y="445" text-anchor="middle" fill="#ffffff" font-family="Consolas, monospace" font-size="14" font-weight="bold">DEKODER</text>
<text x="640" y="465" text-anchor="middle" fill="#aaa" font-family="Consolas, monospace" font-size="10">BCD → 10 linii</text>

<rect x="790" y="380" width="280" height="200" fill="#4a4a6a" rx="10"/>
<text x="930" y="410" text-anchor="middle" fill="#ffffff" font-family="Consolas, monospace" font-size="14" font-weight="bold">COMMAND BLOCKS</text>

<rect x="815" y="425" width="30" height="30" fill="#2d2d44" rx="3"/>
<text x="830" y="445" text-anchor="middle" fill="#ffffff" font-family="Consolas, monospace" font-size="10">0</text>

<rect x="865" y="425" width="30" height="30" fill="#2d2d44" rx="3"/>
<text x="880" y="445" text-anchor="middle" fill="#ffffff" font-family="Consolas, monospace" font-size="10">1</text>

<rect x="915" y="425" width="30" height="30" fill="#2d2d44" rx="3"/>
<text x="930" y="445" text-anchor="middle" fill="#ffffff" font-family="Consolas, monospace" font-size="10">2</text>

<rect x="965" y="425" width="30" height="30" fill="#2d2d44" rx="3"/>
<text x="980" y="445" text-anchor="middle" fill="#ffffff" font-family="Consolas, monospace" font-size="10">3</text>

<rect x="1015" y="425" width="30" height="30" fill="#2d2d44" rx="3"/>
<text x="1030" y="445" text-anchor="middle" fill="#ffffff" font-family="Consolas, monospace" font-size="10">4</text>

<rect x="815" y="485" width="30" height="30" fill="#2d2d44" rx="3"/>
<text x="830" y="505" text-anchor="middle" fill="#ffffff" font-family="Consolas, monospace" font-size="10">5</text>

<rect x="865" y="485" width="30" height="30" fill="#2d2d44" rx="3"/>
<text x="880" y="505" text-anchor="middle" fill="#ffffff" font-family="Consolas, monospace" font-size="10">6</text>

<rect x="915" y="485" width="30" height="30" fill="#2d2d44" rx="3"/>
<text x="930" y="505" text-anchor="middle" fill="#ffffff" font-family="Consolas, monospace" font-size="10">7</text>

<rect x="965" y="485" width="30" height="30" fill="#2d2d44" rx="3"/>
<text x="980" y="505" text-anchor="middle" fill="#ffffff" font-family="Consolas, monospace" font-size="10">8</text>

<rect x="1015" y="485" width="30" height="30" fill="#2d2d44" rx="3"/>
<text x="1030" y="505" text-anchor="middle" fill="#ffffff" font-family="Consolas, monospace" font-size="10">9</text>

<line x1="270" y1="440" x2="350" y2="440" stroke="#ff3333" stroke-width="3" marker-end="url(#arrow)"/>
<line x1="490" y1="440" x2="570" y2="440" stroke="#ff3333" stroke-width="3" marker-end="url(#arrow)"/>
<line x1="710" y1="440" x2="790" y2="440" stroke="#ff3333" stroke-width="3" marker-end="url(#arrow)"/>

<defs>
    <marker id="arrow" markerWidth="10" markerHeight="10" refX="9" refY="3" orient="auto" markerUnits="strokeWidth">
        <path d="M0,0 L0,6 L9,3 z" fill="#ff3333"/>
    </marker>
</defs>

<text x="600" y="650" text-anchor="middle" fill="#ffff00" font-family="Consolas, monospace" font-size="16" font-weight="bold">
    Cykl powtarza się co 10 sekund → 0,1,2,3,4,5,6,7,8,9,0,1,2...
</text>

<text x="600" y="750" text-anchor="middle" fill="#666" font-family="Consolas, monospace" font-size="12">
    Scenariusz testowy: digital_counter_vanilla | Wizualizacja pełnego cyklu
</text>

</svg>