<?xml version="1.0" encoding="UTF-8"?>
<svg xmlns="http://www.w3.org/2000/svg" width="800" height="600" viewBox="0 0 800 600">
  <rect width="100%" height="100%" fill="#0a0a14"/>
  <!-- Siatka podłogi -->
  <line x1="200.0" y1="26.4" x2="92.616" y2="88.4" stroke="#222" stroke-width="1"/>
  <line x1="203.464" y1="28.4" x2="96.08" y2="90.4" stroke="#222" stroke-width="1"/>
  <line x1="206.928" y1="30.4" x2="99.544" y2="92.4" stroke="#222" stroke-width="1"/>
  <line x1="210.392" y1="32.4" x2="103.008" y2="94.4" stroke="#222" stroke-width="1"/>
  <line x1="213.856" y1="34.4" x2="106.472" y2="96.4" stroke="#222" stroke-width="1"/>
  <line x1="217.32" y1="36.4" x2="109.936" y2="98.4" stroke="#222" stroke-width="1"/>
  <line x1="220.784" y1="38.4" x2="113.4" y2="100.4" stroke="#222" stroke-width="1"/>
  <line x1="224.248" y1="40.4" x2="116.864" y2="102.4" stroke="#222" stroke-width="1"/>
  <line x1="227.712" y1="42.4" x2="120.328" y2="104.4" stroke="#222" stroke-width="1"/>
  <line x1="231.176" y1="44.4" x2="123.792" y2="106.4" stroke="#222" stroke-width="1"/>
  <line x1="234.64" y1="46.4" x2="127.256" y2="108.4" stroke="#222" stroke-width="1"/>
  <line x1="238.10399999999998" y1="48.4" x2="130.72" y2="110.4" stroke="#222" stroke-width="1"/>
  <line x1="241.56799999999998" y1="50.4" x2="134.184" y2="112.4" stroke="#222" stroke-width="1"/>
  <line x1="245.03199999999998" y1="52.4" x2="137.648" y2="114.4" stroke="#222" stroke-width="1"/>
  <line x1="248.496" y1="54.4" x2="141.112" y2="116.4" stroke="#222" stroke-width="1"/>
  <line x1="251.96" y1="56.4" x2="144.576" y2="118.4" stroke="#222" stroke-width="1"/>
  <line x1="255.424" y1="58.4" x2="148.04" y2="120.4" stroke="#222" stroke-width="1"/>
  <line x1="258.888" y1="60.4" x2="151.504" y2="122.4" stroke="#222" stroke-width="1"/>
  <line x1="262.352" y1="62.4" x2="154.96800000000002" y2="124.4" stroke="#222" stroke-width="1"/>
  <line x1="265.81600000000003" y1="64.4" x2="158.43200000000002" y2="126.4" stroke="#222" stroke-width="1"/>
  <line x1="269.28" y1="66.4" x2="161.89600000000002" y2="128.4" stroke="#222" stroke-width="1"/>
  <line x1="272.744" y1="68.4" x2="165.36" y2="130.4" stroke="#222" stroke-width="1"/>
  <line x1="276.20799999999997" y1="70.4" x2="168.824" y2="132.4" stroke="#222" stroke-width="1"/>
  <line x1="279.672" y1="72.4" x2="172.288" y2="134.4" stroke="#222" stroke-width="1"/>
  <line x1="283.13599999999997" y1="74.4" x2="175.752" y2="136.4" stroke="#222" stroke-width="1"/>
  <line x1="286.6" y1="76.4" x2="179.216" y2="138.4" stroke="#222" stroke-width="1"/>
  <line x1="290.06399999999996" y1="78.4" x2="182.68" y2="140.4" stroke="#222" stroke-width="1"/>
  <line x1="293.528" y1="80.4" x2="186.144" y2="142.4" stroke="#222" stroke-width="1"/>
  <line x1="296.992" y1="82.4" x2="189.608" y2="144.4" stroke="#222" stroke-width="1"/>
  <line x1="300.456" y1="84.4" x2="193.072" y2="146.4" stroke="#222" stroke-width="1"/>
  <line x1="303.92" y1="86.4" x2="196.536" y2="148.4" stroke="#222" stroke-width="1"/>
  <line x1="307.384" y1="88.4" x2="200.0" y2="150.4" stroke="#222" stroke-width="1"/>
  <line x1="200.0" y1="26.4" x2="307.384" y2="88.4" stroke="#222" stroke-width="1"/>
  <line x1="196.536" y1="28.4" x2="303.92" y2="90.4" stroke="#222" stroke-width="1"/>
  <line x1="193.072" y1="30.4" x2="300.456" y2="92.4" stroke="#222" stroke-width="1"/>
  <line x1="189.608" y1="32.4" x2="296.992" y2="94.4" stroke="#222" stroke-width="1"/>
  <line x1="186.144" y1="34.4" x2="293.528" y2="96.4" stroke="#222" stroke-width="1"/>
  <line x1="182.68" y1="36.4" x2="290.06399999999996" y2="98.4" stroke="#222" stroke-width="1"/>
  <line x1="179.216" y1="38.4" x2="286.6" y2="100.4" stroke="#222" stroke-width="1"/>
  <line x1="175.752" y1="40.4" x2="283.13599999999997" y2="102.4" stroke="#222" stroke-width="1"/>
  <line x1="172.288" y1="42.4" x2="279.672" y2="104.4" stroke="#222" stroke-width="1"/>
  <line x1="168.824" y1="44.4" x2="276.20799999999997" y2="106.4" stroke="#222" stroke-width="1"/>
  <line x1="165.36" y1="46.4" x2="272.744" y2="108.4" stroke="#222" stroke-width="1"/>
  <line x1="161.89600000000002" y1="48.4" x2="269.28" y2="110.4" stroke="#222" stroke-width="1"/>
  <line x1="158.43200000000002" y1="50.4" x2="265.81600000000003" y2="112.4" stroke="#222" stroke-width="1"/>
  <line x1="154.96800000000002" y1="52.4" x2="262.352" y2="114.4" stroke="#222" stroke-width="1"/>
  <line x1="151.504" y1="54.4" x2="258.888" y2="116.4" stroke="#222" stroke-width="1"/>
  <line x1="148.04" y1="56.4" x2="255.424" y2="118.4" stroke="#222" stroke-width="1"/>
  <line x1="144.576" y1="58.4" x2="251.96" y2="120.4" stroke="#222" stroke-width="1"/>
  <line x1="141.112" y1="60.4" x2="248.496" y2="122.4" stroke="#222" stroke-width="1"/>
  <line x1="137.648" y1="62.4" x2="245.03199999999998" y2="124.4" stroke="#222" stroke-width="1"/>
  <line x1="134.184" y1="64.4" x2="241.56799999999998" y2="126.4" stroke="#222" stroke-width="1"/>
  <line x1="130.72" y1="66.4" x2="238.10399999999998" y2="128.4" stroke="#222" stroke-width="1"/>
  <line x1="127.256" y1="68.4" x2="234.64" y2="130.4" stroke="#222" stroke-width="1"/>
  <line x1="123.792" y1="70.4" x2="231.176" y2="132.4" stroke="#222" stroke-width="1"/>
  <line x1="120.328" y1="72.4" x2="227.712" y2="134.4" stroke="#222" stroke-width="1"/>
  <line x1="116.864" y1="74.4" x2="224.248" y2="136.4" stroke="#222" stroke-width="1"/>
  <line x1="113.4" y1="76.4" x2="220.784" y2="138.4" stroke="#222" stroke-width="1"/>
  <line x1="109.936" y1="78.4" x2="217.32" y2="140.4" stroke="#222" stroke-width="1"/>
  <line x1="106.472" y1="80.4" x2="213.856" y2="142.4" stroke="#222" stroke-width="1"/>
  <line x1="103.008" y1="82.4" x2="210.392" y2="144.4" stroke="#222" stroke-width="1"/>
  <line x1="99.544" y1="84.4" x2="206.928" y2="146.4" stroke="#222" stroke-width="1"/>
  <line x1="96.08" y1="86.4" x2="203.464" y2="148.4" stroke="#222" stroke-width="1"/>
  <line x1="92.616" y1="88.4" x2="200.0" y2="150.4" stroke="#222" stroke-width="1"/>
  <!-- Bloki redstone (widok izometryczny) -->
  <polygon points="196.536,66.0 199.736,67.60000000000001 196.536,72.4 193.336,67.60000000000001" fill="#ff0000" stroke="white" stroke-width="0.5" opacity="0.9"/>
  <polygon points="200.0,68.0 203.2,69.60000000000001 200.0,74.4 196.8,69.60000000000001" fill="#808080" stroke="white" stroke-width="0.5" opacity="0.9"/>
  <polygon points="203.464,70.0 206.664,71.60000000000001 203.464,76.4 200.264,71.60000000000001" fill="#ff0000" stroke="white" stroke-width="0.5" opacity="0.9"/>
  <polygon points="206.928,72.0 210.128,73.60000000000001 206.928,78.4 203.728,73.60000000000001" fill="#ff0000" stroke="white" stroke-width="0.5" opacity="0.9"/>
  <polygon points="210.392,74.0 213.59199999999998,75.60000000000001 210.392,80.4 207.192,75.60000000000001" fill="#ff0000" stroke="white" stroke-width="0.5" opacity="0.9"/>
  <polygon points="193.072,68.0 196.272,69.60000000000001 193.072,74.4 189.872,69.60000000000001" fill="#ff0000" stroke="white" stroke-width="0.5" opacity="0.9"/>
  <polygon points="189.608,70.0 192.808,71.60000000000001 189.608,76.4 186.40800000000002,71.60000000000001" fill="#ff0000" stroke="white" stroke-width="0.5" opacity="0.9"/>
  <polygon points="186.144,72.0 189.344,73.60000000000001 186.144,78.4 182.94400000000002,73.60000000000001" fill="#ff0000" stroke="white" stroke-width="0.5" opacity="0.9"/>
  <polygon points="182.68,74.0 185.88,75.60000000000001 182.68,80.4 179.48000000000002,75.60000000000001" fill="#808080" stroke="white" stroke-width="0.5" opacity="0.9"/>
  <polygon points="165.36,68.0 168.56,69.60000000000001 165.36,74.4 162.16000000000003,69.60000000000001" fill="#ff0000" stroke="white" stroke-width="0.5" opacity="0.9"/>
  <polygon points="179.216,76.0 182.416,77.60000000000001 179.216,82.4 176.01600000000002,77.60000000000001" fill="#ff0000" stroke="white" stroke-width="0.5" opacity="0.9"/>
  <polygon points="161.89600000000002,70.0 165.096,71.60000000000001 161.89600000000002,76.4 158.69600000000003,71.60000000000001" fill="#ff0000" stroke="white" stroke-width="0.5" opacity="0.9"/>
  <polygon points="175.752,78.0 178.952,79.60000000000001 175.752,84.4 172.55200000000002,79.60000000000001" fill="#ff0000" stroke="white" stroke-width="0.5" opacity="0.9"/>
  <polygon points="158.43200000000002,72.0 161.632,73.60000000000001 158.43200000000002,78.4 155.23200000000003,73.60000000000001" fill="#ff0000" stroke="white" stroke-width="0.5" opacity="0.9"/>
  <polygon points="172.288,80.0 175.488,81.60000000000001 172.288,86.4 169.08800000000002,81.60000000000001" fill="#ff0000" stroke="white" stroke-width="0.5" opacity="0.9"/>
  <polygon points="154.96800000000002,74.0 158.168,75.60000000000001 154.96800000000002,80.4 151.76800000000003,75.60000000000001" fill="#ff0000" stroke="white" stroke-width="0.5" opacity="0.9"/>
  <polygon points="168.824,82.0 172.024,83.60000000000001 168.824,88.4 165.62400000000002,83.60000000000001" fill="#ff0000" stroke="white" stroke-width="0.5" opacity="0.9"/>
  <polygon points="151.504,76.0 154.70399999999998,77.60000000000001 151.504,82.4 148.304,77.60000000000001" fill="#ff0000" stroke="white" stroke-width="0.5" opacity="0.9"/>
  <polygon points="165.36,84.0 168.56,85.60000000000001 165.36,90.4 162.16000000000003,85.60000000000001" fill="#808080" stroke="white" stroke-width="0.5" opacity="0.9"/>
  <polygon points="148.04,78.0 151.23999999999998,79.60000000000001 148.04,84.4 144.84,79.60000000000001" fill="#ff0000" stroke="white" stroke-width="0.5" opacity="0.9"/>
  <polygon points="161.89600000000002,86.0 165.096,87.60000000000001 161.89600000000002,92.4 158.69600000000003,87.60000000000001" fill="#ff0000" stroke="white" stroke-width="0.5" opacity="0.9"/>
  <polygon points="165.36,88.0 168.56,89.60000000000001 165.36,94.4 162.16000000000003,89.60000000000001" fill="#ff0000" stroke="white" stroke-width="0.5" opacity="0.9"/>
  <polygon points="168.824,90.0 172.024,91.60000000000001 168.824,96.4 165.62400000000002,91.60000000000001" fill="#ff0000" stroke="white" stroke-width="0.5" opacity="0.9"/>
  <polygon points="172.288,92.0 175.488,93.60000000000001 172.288,98.4 169.08800000000002,93.60000000000001" fill="#ff0000" stroke="white" stroke-width="0.5" opacity="0.9"/>
  <polygon points="175.752,94.0 178.952,95.60000000000001 175.752,100.4 172.55200000000002,95.60000000000001" fill="#808080" stroke="white" stroke-width="0.5" opacity="0.9"/>
  <polygon points="144.576,80.0 147.77599999999998,81.60000000000001 144.576,86.4 141.376,81.60000000000001" fill="#ff0000" stroke="white" stroke-width="0.5" opacity="0.9"/>
  <polygon points="141.112,82.0 144.31199999999998,83.60000000000001 141.112,88.4 137.912,83.60000000000001" fill="#ff0000" stroke="white" stroke-width="0.5" opacity="0.9"/>
  <polygon points="137.648,84.0 140.84799999999998,85.60000000000001 137.648,90.4 134.448,85.60000000000001" fill="#808080" stroke="white" stroke-width="0.5" opacity="0.9"/>
  <polygon points="134.184,86.0 137.384,87.60000000000001 134.184,92.4 130.984,87.60000000000001" fill="#ff0000" stroke="white" stroke-width="0.5" opacity="0.9"/>
  <polygon points="137.648,88.0 140.84799999999998,89.60000000000001 137.648,94.4 134.448,89.60000000000001" fill="#ff0000" stroke="white" stroke-width="0.5" opacity="0.9"/>
  <polygon points="141.112,90.0 144.31199999999998,91.60000000000001 141.112,96.4 137.912,91.60000000000001" fill="#ff0000" stroke="white" stroke-width="0.5" opacity="0.9"/>
  <polygon points="144.576,92.0 147.77599999999998,93.60000000000001 144.576,98.4 141.376,93.60000000000001" fill="#ff0000" stroke="white" stroke-width="0.5" opacity="0.9"/>
  <polygon points="148.04,94.0 151.23999999999998,95.60000000000001 148.04,100.4 144.84,95.60000000000001" fill="#808080" stroke="white" stroke-width="0.5" opacity="0.9"/>
  <polygon points="151.504,96.0 154.70399999999998,97.60000000000001 151.504,102.4 148.304,97.60000000000001" fill="#ff0000" stroke="white" stroke-width="0.5" opacity="0.9"/>
  <polygon points="154.96800000000002,98.0 158.168,99.60000000000001 154.96800000000002,104.4 151.76800000000003,99.60000000000001" fill="#ff0000" stroke="white" stroke-width="0.5" opacity="0.9"/>
  <polygon points="158.43200000000002,100.0 161.632,101.60000000000001 158.43200000000002,106.4 155.23200000000003,101.60000000000001" fill="#ff0000" stroke="white" stroke-width="0.5" opacity="0.9"/>
  <polygon points="161.89600000000002,102.0 165.096,103.60000000000001 161.89600000000002,108.4 158.69600000000003,103.60000000000001" fill="#ff0000" stroke="white" stroke-width="0.5" opacity="0.9"/>
  <polygon points="213.856,76.0 217.05599999999998,77.60000000000001 213.856,82.4 210.656,77.60000000000001" fill="#ff0000" stroke="white" stroke-width="0.5" opacity="0.9"/>
  <polygon points="217.32,78.0 220.51999999999998,79.60000000000001 217.32,84.4 214.12,79.60000000000001" fill="#ff0000" stroke="white" stroke-width="0.5" opacity="0.9"/>
  <polygon points="220.784,80.0 223.98399999999998,81.60000000000001 220.784,86.4 217.584,81.60000000000001" fill="#808080" stroke="white" stroke-width="0.5" opacity="0.9"/>
  <polygon points="224.248,82.0 227.44799999999998,83.60000000000001 224.248,88.4 221.048,83.60000000000001" fill="#ff0000" stroke="white" stroke-width="0.5" opacity="0.9"/>
  <polygon points="227.712,84.0 230.91199999999998,85.60000000000001 227.712,90.4 224.512,85.60000000000001" fill="#ff0000" stroke="white" stroke-width="0.5" opacity="0.9"/>
  <polygon points="231.176,86.0 234.37599999999998,87.60000000000001 231.176,92.4 227.976,87.60000000000001" fill="#ff0000" stroke="white" stroke-width="0.5" opacity="0.9"/>
  <polygon points="234.64,88.0 237.83999999999997,89.60000000000001 234.64,94.4 231.44,89.60000000000001" fill="#ff0000" stroke="white" stroke-width="0.5" opacity="0.9"/>
  <polygon points="238.10399999999998,90.0 241.30399999999997,91.60000000000001 238.10399999999998,96.4 234.904,91.60000000000001" fill="#808080" stroke="white" stroke-width="0.5" opacity="0.9"/>
  <polygon points="241.56799999999998,92.0 244.76799999999997,93.60000000000001 241.56799999999998,98.4 238.368,93.60000000000001" fill="#ff0000" stroke="white" stroke-width="0.5" opacity="0.9"/>
  <polygon points="245.03199999999998,94.0 248.23199999999997,95.60000000000001 245.03199999999998,100.4 241.832,95.60000000000001" fill="#ff0000" stroke="white" stroke-width="0.5" opacity="0.9"/>
  <polygon points="241.56799999999998,96.0 244.76799999999997,97.60000000000001 241.56799999999998,102.4 238.368,97.60000000000001" fill="#ff0000" stroke="white" stroke-width="0.5" opacity="0.9"/>
  <polygon points="238.10399999999998,98.0 241.30399999999997,99.60000000000001 238.10399999999998,104.4 234.904,99.60000000000001" fill="#ff0000" stroke="white" stroke-width="0.5" opacity="0.9"/>
  <polygon points="234.64,100.0 237.83999999999997,101.60000000000001 234.64,106.4 231.44,101.60000000000001" fill="#ff0000" stroke="white" stroke-width="0.5" opacity="0.9"/>
  <polygon points="200.0,84.0 203.2,85.60000000000001 200.0,90.4 196.8,85.60000000000001" fill="#ff6600" stroke="white" stroke-width="0.5" opacity="0.9"/>
  <polygon points="203.464,86.0 206.664,87.60000000000001 203.464,92.4 200.264,87.60000000000001" fill="#ff0000" stroke="white" stroke-width="0.5" opacity="0.9"/>
  <polygon points="210.392,90.0 213.59199999999998,91.60000000000001 210.392,96.4 207.192,91.60000000000001" fill="#ff0000" stroke="white" stroke-width="0.5" opacity="0.9"/>
  <polygon points="213.856,92.0 217.05599999999998,93.60000000000001 213.856,98.4 210.656,93.60000000000001" fill="#808080" stroke="white" stroke-width="0.5" opacity="0.9"/>
  <polygon points="217.32,94.0 220.51999999999998,95.60000000000001 217.32,100.4 214.12,95.60000000000001" fill="#ff0000" stroke="white" stroke-width="0.5" opacity="0.9"/>
  <polygon points="231.176,102.0 234.37599999999998,103.60000000000001 231.176,108.4 227.976,103.60000000000001" fill="#808080" stroke="white" stroke-width="0.5" opacity="0.9"/>
  <polygon points="213.856,96.0 217.05599999999998,97.60000000000001 213.856,102.4 210.656,97.60000000000001" fill="#ff0000" stroke="white" stroke-width="0.5" opacity="0.9"/>
  <polygon points="227.712,104.0 230.91199999999998,105.60000000000001 227.712,110.4 224.512,105.60000000000001" fill="#ff0000" stroke="white" stroke-width="0.5" opacity="0.9"/>
  <polygon points="210.392,98.0 213.59199999999998,99.60000000000001 210.392,104.4 207.192,99.60000000000001" fill="#ff0000" stroke="white" stroke-width="0.5" opacity="0.9"/>
  <polygon points="224.248,106.0 227.44799999999998,107.60000000000001 224.248,112.4 221.048,107.60000000000001" fill="#ff0000" stroke="white" stroke-width="0.5" opacity="0.9"/>
  <polygon points="206.928,100.0 210.128,101.60000000000001 206.928,106.4 203.728,101.60000000000001" fill="#808080" stroke="white" stroke-width="0.5" opacity="0.9"/>
  <polygon points="220.784,108.0 223.98399999999998,109.60000000000001 220.784,114.4 217.584,109.60000000000001" fill="#ff0000" stroke="white" stroke-width="0.5" opacity="0.9"/>
  <polygon points="203.464,102.0 206.664,103.60000000000001 203.464,108.4 200.264,103.60000000000001" fill="#ff0000" stroke="white" stroke-width="0.5" opacity="0.9"/>
  <polygon points="217.32,110.0 220.51999999999998,111.60000000000001 217.32,116.4 214.12,111.60000000000001" fill="#ff0000" stroke="white" stroke-width="0.5" opacity="0.9"/>
  <polygon points="200.0,104.0 203.2,105.60000000000001 200.0,110.4 196.8,105.60000000000001" fill="#ff0000" stroke="white" stroke-width="0.5" opacity="0.9"/>
  <polygon points="213.856,112.0 217.05599999999998,113.60000000000001 213.856,118.4 210.656,113.60000000000001" fill="#808080" stroke="white" stroke-width="0.5" opacity="0.9"/>
  <polygon points="179.216,96.0 182.416,97.60000000000001 179.216,102.4 176.01600000000002,97.60000000000001" fill="#ff0000" stroke="white" stroke-width="0.5" opacity="0.9"/>
  <polygon points="182.68,98.0 185.88,99.60000000000001 182.68,104.4 179.48000000000002,99.60000000000001" fill="#ff0000" stroke="white" stroke-width="0.5" opacity="0.9"/>
  <polygon points="186.144,100.0 189.344,101.60000000000001 186.144,106.4 182.94400000000002,101.60000000000001" fill="#ff0000" stroke="white" stroke-width="0.5" opacity="0.9"/>
  <polygon points="189.608,102.0 192.808,103.60000000000001 189.608,108.4 186.40800000000002,103.60000000000001" fill="#808080" stroke="white" stroke-width="0.5" opacity="0.9"/>
  <polygon points="193.072,104.0 196.272,105.60000000000001 193.072,110.4 189.872,105.60000000000001" fill="#ff0000" stroke="white" stroke-width="0.5" opacity="0.9"/>
  <polygon points="196.536,106.0 199.736,107.60000000000001 196.536,112.4 193.336,107.60000000000001" fill="#ff0000" stroke="white" stroke-width="0.5" opacity="0.9"/>
  <polygon points="210.392,114.0 213.59199999999998,115.60000000000001 210.392,120.4 207.192,115.60000000000001" fill="#ff0000" stroke="white" stroke-width="0.5" opacity="0.9"/>
  <polygon points="206.928,116.0 210.128,117.60000000000001 206.928,122.4 203.728,117.60000000000001" fill="#ff0000" stroke="white" stroke-width="0.5" opacity="0.9"/>
  <polygon points="203.464,118.0 206.664,119.60000000000001 203.464,124.4 200.264,119.60000000000001" fill="#ff0000" stroke="white" stroke-width="0.5" opacity="0.9"/>
  <polygon points="200.0,120.0 203.2,121.60000000000001 200.0,126.4 196.8,121.60000000000001" fill="#ff0000" stroke="white" stroke-width="0.5" opacity="0.9"/>
  <polygon points="165.36,104.0 168.56,105.60000000000001 165.36,110.4 162.16000000000003,105.60000000000001" fill="#ff0000" stroke="white" stroke-width="0.5" opacity="0.9"/>
  <polygon points="168.824,106.0 172.024,107.60000000000001 168.824,112.4 165.62400000000002,107.60000000000001" fill="#808080" stroke="white" stroke-width="0.5" opacity="0.9"/>
  <polygon points="172.288,108.0 175.488,109.60000000000001 172.288,114.4 169.08800000000002,109.60000000000001" fill="#ff0000" stroke="white" stroke-width="0.5" opacity="0.9"/>
  <polygon points="175.752,110.0 178.952,111.60000000000001 175.752,116.4 172.55200000000002,111.60000000000001" fill="#ff0000" stroke="white" stroke-width="0.5" opacity="0.9"/>
  <polygon points="179.216,112.0 182.416,113.60000000000001 179.216,118.4 176.01600000000002,113.60000000000001" fill="#ff0000" stroke="white" stroke-width="0.5" opacity="0.9"/>
  <polygon points="182.68,114.0 185.88,115.60000000000001 182.68,120.4 179.48000000000002,115.60000000000001" fill="#ff0000" stroke="white" stroke-width="0.5" opacity="0.9"/>
  <polygon points="186.144,116.0 189.344,117.60000000000001 186.144,122.4 182.94400000000002,117.60000000000001" fill="#ff0000" stroke="white" stroke-width="0.5" opacity="0.9"/>
  <polygon points="189.608,118.0 192.808,119.60000000000001 189.608,124.4 186.40800000000002,119.60000000000001" fill="#808080" stroke="white" stroke-width="0.5" opacity="0.9"/>
  <polygon points="193.072,120.0 196.272,121.60000000000001 193.072,126.4 189.872,121.60000000000001" fill="#ff0000" stroke="white" stroke-width="0.5" opacity="0.9"/>
  <polygon points="196.536,122.0 199.736,123.60000000000001 196.536,128.4 193.336,123.60000000000001" fill="#ff0000" stroke="white" stroke-width="0.5" opacity="0.9"/>
  <!-- Legenda -->
  <text x="10" y="30" fill="white" font-size="16" font-weight="bold">Widok 3D - 4 chunki redstone</text>
  <text x="10" y="50" fill="#aaa" font-size="12">Bloki: 86</text>
  <text x="10" y="65" fill="#aaa" font-size="12">Zakres Y: 4..4</text>
  <text x="10" y="80" fill="#ff0000" font-size="12">■ Redstone Wire (55)</text>
  <text x="10" y="95" fill="#808080" font-size="12">■ Repeater (93/94)</text>
  <text x="10" y="110" fill="#ff6600" font-size="12">■ Torch (75/76)</text>
  <text x="10" y="125" fill="#ff00ff" font-size="12">■ Comparator (152)</text>
</svg>
