<?xml version="1.0" encoding="UTF-8"?>
<svg xmlns="http://www.w3.org/2000/svg" width="256" height="256" viewBox="0 0 256 256">
  <rect width="100%" height="100%" fill="#1a1a2e"/>
  <!-- Granice chunków -->
  <line x1="128" y1="0" x2="128" y2="256" stroke="#333" stroke-width="2"/>
  <line x1="0" y1="128" x2="256" y2="128" stroke="#333" stroke-width="2"/>
  <!-- Etykiety chunków -->
  <text x="64" y="64" fill="#666" font-size="20" text-anchor="middle" dominant-baseline="middle">(-1,-1)</text>
  <text x="192" y="64" fill="#666" font-size="20" text-anchor="middle" dominant-baseline="middle">(0,-1)</text>
  <text x="64" y="192" fill="#666" font-size="20" text-anchor="middle" dominant-baseline="middle">(-1,0)</text>
  <text x="192" y="192" fill="#666" font-size="20" text-anchor="middle" dominant-baseline="middle">(0,0)</text>
  <!-- Bloki redstone (Y=4) -->
  <rect x="89" y="97" width="6" height="6" fill="#ff0000" stroke="white" stroke-width="0.5"/>
  <rect x="97" y="97" width="6" height="6" fill="#808080" stroke="white" stroke-width="0.5"/>
  <rect x="105" y="97" width="6" height="6" fill="#ff0000" stroke="white" stroke-width="0.5"/>
  <rect x="113" y="97" width="6" height="6" fill="#ff0000" stroke="white" stroke-width="0.5"/>
  <rect x="121" y="97" width="6" height="6" fill="#ff0000" stroke="white" stroke-width="0.5"/>
  <rect x="89" y="105" width="6" height="6" fill="#ff0000" stroke="white" stroke-width="0.5"/>
  <rect x="89" y="113" width="6" height="6" fill="#ff0000" stroke="white" stroke-width="0.5"/>
  <rect x="89" y="121" width="6" height="6" fill="#ff0000" stroke="white" stroke-width="0.5"/>
  <rect x="89" y="129" width="6" height="6" fill="#808080" stroke="white" stroke-width="0.5"/>
  <rect x="57" y="137" width="6" height="6" fill="#ff0000" stroke="white" stroke-width="0.5"/>
  <rect x="89" y="137" width="6" height="6" fill="#ff0000" stroke="white" stroke-width="0.5"/>
  <rect x="57" y="145" width="6" height="6" fill="#ff0000" stroke="white" stroke-width="0.5"/>
  <rect x="89" y="145" width="6" height="6" fill="#ff0000" stroke="white" stroke-width="0.5"/>
  <rect x="57" y="153" width="6" height="6" fill="#ff0000" stroke="white" stroke-width="0.5"/>
  <rect x="89" y="153" width="6" height="6" fill="#ff0000" stroke="white" stroke-width="0.5"/>
  <rect x="57" y="161" width="6" height="6" fill="#ff0000" stroke="white" stroke-width="0.5"/>
  <rect x="89" y="161" width="6" height="6" fill="#ff0000" stroke="white" stroke-width="0.5"/>
  <rect x="57" y="169" width="6" height="6" fill="#ff0000" stroke="white" stroke-width="0.5"/>
  <rect x="89" y="169" width="6" height="6" fill="#808080" stroke="white" stroke-width="0.5"/>
  <rect x="57" y="177" width="6" height="6" fill="#ff0000" stroke="white" stroke-width="0.5"/>
  <rect x="89" y="177" width="6" height="6" fill="#ff0000" stroke="white" stroke-width="0.5"/>
  <rect x="97" y="177" width="6" height="6" fill="#ff0000" stroke="white" stroke-width="0.5"/>
  <rect x="105" y="177" width="6" height="6" fill="#ff0000" stroke="white" stroke-width="0.5"/>
  <rect x="113" y="177" width="6" height="6" fill="#ff0000" stroke="white" stroke-width="0.5"/>
  <rect x="121" y="177" width="6" height="6" fill="#808080" stroke="white" stroke-width="0.5"/>
  <rect x="57" y="185" width="6" height="6" fill="#ff0000" stroke="white" stroke-width="0.5"/>
  <rect x="57" y="193" width="6" height="6" fill="#ff0000" stroke="white" stroke-width="0.5"/>
  <rect x="57" y="201" width="6" height="6" fill="#808080" stroke="white" stroke-width="0.5"/>
  <rect x="57" y="209" width="6" height="6" fill="#ff0000" stroke="white" stroke-width="0.5"/>
  <rect x="65" y="209" width="6" height="6" fill="#ff0000" stroke="white" stroke-width="0.5"/>
  <rect x="73" y="209" width="6" height="6" fill="#ff0000" stroke="white" stroke-width="0.5"/>
  <rect x="81" y="209" width="6" height="6" fill="#ff0000" stroke="white" stroke-width="0.5"/>
  <rect x="89" y="209" width="6" height="6" fill="#808080" stroke="white" stroke-width="0.5"/>
  <rect x="97" y="209" width="6" height="6" fill="#ff0000" stroke="white" stroke-width="0.5"/>
  <rect x="105" y="209" width="6" height="6" fill="#ff0000" stroke="white" stroke-width="0.5"/>
  <rect x="113" y="209" width="6" height="6" fill="#ff0000" stroke="white" stroke-width="0.5"/>
  <rect x="121" y="209" width="6" height="6" fill="#ff0000" stroke="white" stroke-width="0.5"/>
  <rect x="129" y="97" width="6" height="6" fill="#ff0000" stroke="white" stroke-width="0.5"/>
  <rect x="137" y="97" width="6" height="6" fill="#ff0000" stroke="white" stroke-width="0.5"/>
  <rect x="145" y="97" width="6" height="6" fill="#808080" stroke="white" stroke-width="0.5"/>
  <rect x="153" y="97" width="6" height="6" fill="#ff0000" stroke="white" stroke-width="0.5"/>
  <rect x="161" y="97" width="6" height="6" fill="#ff0000" stroke="white" stroke-width="0.5"/>
  <rect x="169" y="97" width="6" height="6" fill="#ff0000" stroke="white" stroke-width="0.5"/>
  <rect x="177" y="97" width="6" height="6" fill="#ff0000" stroke="white" stroke-width="0.5"/>
  <rect x="185" y="97" width="6" height="6" fill="#808080" stroke="white" stroke-width="0.5"/>
  <rect x="193" y="97" width="6" height="6" fill="#ff0000" stroke="white" stroke-width="0.5"/>
  <rect x="201" y="97" width="6" height="6" fill="#ff0000" stroke="white" stroke-width="0.5"/>
  <rect x="201" y="105" width="6" height="6" fill="#ff0000" stroke="white" stroke-width="0.5"/>
  <rect x="201" y="113" width="6" height="6" fill="#ff0000" stroke="white" stroke-width="0.5"/>
  <rect x="201" y="121" width="6" height="6" fill="#ff0000" stroke="white" stroke-width="0.5"/>
  <rect x="129" y="129" width="6" height="6" fill="#ff6600" stroke="white" stroke-width="0.5"/>
  <rect x="137" y="129" width="6" height="6" fill="#ff0000" stroke="white" stroke-width="0.5"/>
  <rect x="153" y="129" width="6" height="6" fill="#ff0000" stroke="white" stroke-width="0.5"/>
  <rect x="161" y="129" width="6" height="6" fill="#808080" stroke="white" stroke-width="0.5"/>
  <rect x="169" y="129" width="6" height="6" fill="#ff0000" stroke="white" stroke-width="0.5"/>
  <rect x="201" y="129" width="6" height="6" fill="#808080" stroke="white" stroke-width="0.5"/>
  <rect x="169" y="137" width="6" height="6" fill="#ff0000" stroke="white" stroke-width="0.5"/>
  <rect x="201" y="137" width="6" height="6" fill="#ff0000" stroke="white" stroke-width="0.5"/>
  <rect x="169" y="145" width="6" height="6" fill="#ff0000" stroke="white" stroke-width="0.5"/>
  <rect x="201" y="145" width="6" height="6" fill="#ff0000" stroke="white" stroke-width="0.5"/>
  <rect x="169" y="153" width="6" height="6" fill="#808080" stroke="white" stroke-width="0.5"/>
  <rect x="201" y="153" width="6" height="6" fill="#ff0000" stroke="white" stroke-width="0.5"/>
  <rect x="169" y="161" width="6" height="6" fill="#ff0000" stroke="white" stroke-width="0.5"/>
  <rect x="201" y="161" width="6" height="6" fill="#ff0000" stroke="white" stroke-width="0.5"/>
  <rect x="169" y="169" width="6" height="6" fill="#ff0000" stroke="white" stroke-width="0.5"/>
  <rect x="201" y="169" width="6" height="6" fill="#808080" stroke="white" stroke-width="0.5"/>
  <rect x="129" y="177" width="6" height="6" fill="#ff0000" stroke="white" stroke-width="0.5"/>
  <rect x="137" y="177" width="6" height="6" fill="#ff0000" stroke="white" stroke-width="0.5"/>
  <rect x="145" y="177" width="6" height="6" fill="#ff0000" stroke="white" stroke-width="0.5"/>
  <rect x="153" y="177" width="6" height="6" fill="#808080" stroke="white" stroke-width="0.5"/>
  <rect x="161" y="177" width="6" height="6" fill="#ff0000" stroke="white" stroke-width="0.5"/>
  <rect x="169" y="177" width="6" height="6" fill="#ff0000" stroke="white" stroke-width="0.5"/>
  <rect x="201" y="177" width="6" height="6" fill="#ff0000" stroke="white" stroke-width="0.5"/>
  <rect x="201" y="185" width="6" height="6" fill="#ff0000" stroke="white" stroke-width="0.5"/>
  <rect x="201" y="193" width="6" height="6" fill="#ff0000" stroke="white" stroke-width="0.5"/>
  <rect x="201" y="201" width="6" height="6" fill="#ff0000" stroke="white" stroke-width="0.5"/>
  <rect x="129" y="209" width="6" height="6" fill="#ff0000" stroke="white" stroke-width="0.5"/>
  <rect x="137" y="209" width="6" height="6" fill="#808080" stroke="white" stroke-width="0.5"/>
  <rect x="145" y="209" width="6" height="6" fill="#ff0000" stroke="white" stroke-width="0.5"/>
  <rect x="153" y="209" width="6" height="6" fill="#ff0000" stroke="white" stroke-width="0.5"/>
  <rect x="161" y="209" width="6" height="6" fill="#ff0000" stroke="white" stroke-width="0.5"/>
  <rect x="169" y="209" width="6" height="6" fill="#ff0000" stroke="white" stroke-width="0.5"/>
  <rect x="177" y="209" width="6" height="6" fill="#ff0000" stroke="white" stroke-width="0.5"/>
  <rect x="185" y="209" width="6" height="6" fill="#808080" stroke="white" stroke-width="0.5"/>
  <rect x="193" y="209" width="6" height="6" fill="#ff0000" stroke="white" stroke-width="0.5"/>
  <rect x="201" y="209" width="6" height="6" fill="#ff0000" stroke="white" stroke-width="0.5"/>
  <text x="10" y="20" fill="white" font-size="14">Y = 4 | 86 bloków</text>
</svg>
